<?xml version="1.0" encoding="UTF-8" standalone="no"?>
<!DOCTYPE svg PUBLIC "-//W3C//DTD SVG 1.1//EN" "http://www.w3.org/Graphics/SVG/1.1/DTD/svg11.dtd">
<svg width="100%" height="100%" viewBox="0 0 194 127" version="1.1" xmlns="http://www.w3.org/2000/svg" xmlns:xlink="http://www.w3.org/1999/xlink" xml:space="preserve" xmlns:serif="http://www.serif.com/" style="fill-rule:evenodd;clip-rule:evenodd;stroke-linejoin:round;stroke-miterlimit:2;">
    <g transform="matrix(1,0,0,1,1275.61,-884.284)">
        <g transform="matrix(0.478289,0,0,0.478289,-1437.13,199.103)">
            <g transform="matrix(-2.11874,2.59471e-16,-1.4799e-16,-1.20843,6377.19,2522.72)">
                <rect x="2802.64" y="714.623" width="8.793" height="148.961" style="fill:white;"/>
            </g>
            <g transform="matrix(-4.29621e-16,-2.11874,2.21565,-3.83958e-16,-1208.37,7426.53)">
                <rect x="2802.64" y="714.623" width="8.793" height="148.961" style="fill:white;"/>
            </g>
            <g transform="matrix(-4.14854e-16,-2.11874,1.84761,-3.24773e-16,-890.542,7463.79)">
                <rect x="2802.64" y="714.623" width="8.793" height="148.961" style="fill:white;"/>
            </g>
            <g transform="matrix(1.16436,0,0,1.16436,-408.516,1118.07)">
                <g transform="matrix(1.81966,-4.80166e-16,1.64121e-16,0.706892,-4127.5,-227.058)">
                    <rect x="2802.64" y="714.623" width="8.793" height="148.961" style="fill:white;"/>
                </g>
                <g transform="matrix(1.81966,-9.60332e-16,1.64121e-16,1.41378,-4458.96,-732.219)">
                    <rect x="2802.64" y="714.623" width="8.793" height="148.961" style="fill:white;"/>
                </g>
                <g transform="matrix(1.17069e-15,1.81966,-2.33253,7.14952e-16,2655.23,-4619.15)">
                    <rect x="2802.64" y="714.623" width="8.793" height="148.961" style="fill:white;"/>
                </g>
                <g transform="matrix(7.7711e-16,1.81966,-2.33253,8.58052e-16,2655.23,-4829.75)">
                    <rect x="2802.64" y="714.623" width="8.793" height="148.961" style="fill:white;"/>
                </g>
            </g>
            <g transform="matrix(-3.8517e-16,-2.11874,1.10782,-2.05806e-16,-251.676,7501.05)">
                <rect x="2802.64" y="714.623" width="8.793" height="148.961" style="fill:white;"/>
            </g>
            <g transform="matrix(-2.11874,2.59471e-16,-1.17358e-16,-0.958299,6487.39,2343.97)">
                <rect x="2802.64" y="714.623" width="8.793" height="148.961" style="fill:white;"/>
            </g>
            <g transform="matrix(-2.11874,2.59471e-16,-8.67257e-17,-0.708169,6597.58,2165.23)">
                <rect x="2802.64" y="714.623" width="8.793" height="148.961" style="fill:white;"/>
            </g>
        </g>
    </g>
</svg>
